<?xml version="1.0" standalone="no"?>
<!DOCTYPE svg PUBLIC "-//W3C//DTD SVG 20010904//EN"
 "http://www.w3.org/TR/2001/REC-SVG-20010904/DTD/svg10.dtd">
<svg version="1.0" xmlns="http://www.w3.org/2000/svg"
 width="260.000000pt" height="260.000000pt" viewBox="0 0 260.000000 260.000000"
 preserveAspectRatio="xMidYMid meet">
<metadata>
Created by potrace 1.14, written by Peter Selinger 2001-2017
</metadata>
<g transform="translate(0.000000,260.000000) scale(0.100000,-0.100000)"
fill="#000000" stroke="none">
<path d="M0 1300 l0 -1300 1300 0 1300 0 0 1300 0 1300 -472 0 c-355 -1 -468
-3 -453 -12 11 -6 76 -56 145 -111 231 -185 230 -183 217 -343 -5 -66 -15
-125 -26 -150 -10 -23 -67 -101 -126 -175 -152 -189 -162 -199 -204 -199 -31
0 -58 18 -191 125 -85 69 -167 144 -182 166 -27 40 -28 48 -28 159 0 146 4
155 170 359 129 160 135 166 165 174 11 2 -348 5 -797 6 l-818 1 0 -1300z
m854 419 c19 -9 43 -52 107 -193 108 -239 115 -261 123 -395 l6 -113 -33 -32
c-40 -38 -369 -186 -413 -186 -16 0 -38 6 -47 13 -9 6 -44 73 -78 147 -113
250 -129 296 -144 418 -21 161 -29 151 244 273 97 43 184 79 193 79 9 0 28 -5
42 -11z m806 -859 c106 -61 188 -115 208 -138 l34 -37 -7 -90 c-4 -49 -15
-112 -25 -138 -24 -62 -206 -380 -231 -403 -10 -9 -32 -17 -48 -16 -38 1 -372
194 -406 234 -23 27 -25 37 -25 129 0 122 4 132 135 359 100 173 122 200 170
200 11 0 99 -45 195 -100z"/>
<path d="M725 1468 c-27 -15 -35 -28 -35 -58 0 -24 1 -24 20 8 21 34 54 53 80
45 13 -4 13 -4 0 6 -19 14 -40 13 -65 -1z"/>
<path d="M814 1443 c4 -7 2 -22 -4 -33 -24 -46 -123 -66 -168 -34 -12 8 -22
11 -22 7 0 -16 58 -43 93 -43 57 0 86 16 103 56 12 29 13 39 3 48 -9 8 -10 8
-5 -1z"/>
<path d="M459 1187 c6 -8 9 -16 6 -19 -3 -2 2 -5 10 -5 13 0 13 3 -2 19 -19
21 -31 25 -14 5z"/>
<path d="M489 1138 c-2 -23 3 -53 10 -60 3 -4 5 10 3 32 -4 39 -11 53 -13 28z"/>
<path d="M919 1078 c-7 -21 -2 -59 8 -62 9 -4 13 5 13 29 0 19 -4 35 -10 35
-5 0 -10 -1 -11 -2z"/>
<path d="M800 1014 c-52 -23 -70 -64 -27 -64 18 0 19 2 7 10 -24 15 17 49 70
59 36 7 39 9 15 10 -16 0 -46 -7 -65 -15z"/>
<path d="M1452 708 c-19 -19 -14 -30 8 -18 11 6 20 15 20 20 0 14 -14 12 -28
-2z"/>
<path d="M1542 623 c-19 -21 -30 -24 -59 -20 -29 5 -33 4 -23 -8 17 -21 60
-18 94 4 17 11 34 17 39 14 5 -3 4 4 -2 16 -14 26 -20 25 -49 -6z"/>
<path d="M1591 574 c-6 -14 -11 -33 -11 -42 1 -14 4 -13 20 7 21 25 26 46 11
55 -4 3 -13 -6 -20 -20z"/>
<path d="M1790 415 c-7 -9 -8 -15 -2 -15 5 0 12 7 16 15 3 8 4 15 2 15 -2 0
-9 -7 -16 -15z"/>
<path d="M1735 334 c-4 -16 -8 -35 -11 -41 -6 -23 5 -14 20 15 9 17 11 34 6
42 -6 10 -10 6 -15 -16z"/>
<path d="M1290 317 c0 -9 15 -23 33 -31 17 -8 60 -31 95 -51 51 -30 61 -33 51
-16 -7 11 -15 18 -18 16 -6 -6 -110 53 -138 78 -20 18 -23 18 -23 4z"/>
<path d="M1590 2299 c0 -12 3 -20 6 -16 4 3 37 -19 75 -49 49 -40 66 -60 62
-72 -3 -9 -4 -15 -2 -12 2 3 15 18 29 33 18 21 20 26 7 21 -12 -4 -35 8 -73
37 -112 88 -104 84 -104 58z"/>
<path d="M1869 1973 c-13 -15 -16 -21 -6 -14 14 11 17 11 17 -1 0 -7 -7 -23
-15 -35 -14 -20 -14 -21 9 -10 19 9 23 19 22 49 0 21 -1 38 -2 38 0 0 -11 -12
-25 -27z"/>
<path d="M1410 1958 c0 -14 7 -31 15 -38 12 -10 13 -7 5 21 -12 42 -20 49 -20
17z"/>
<path d="M1455 1910 c-3 -5 -1 -18 4 -27 6 -10 11 -12 11 -5 0 15 32 16 48 0
6 -6 14 -9 17 -6 6 5 -55 48 -68 48 -3 0 -9 -4 -12 -10z"/>
<path d="M1844 1848 l-19 -23 23 19 c21 18 27 26 19 26 -2 0 -12 -10 -23 -22z"/>
<path d="M1557 1816 c-3 -8 -2 -18 3 -21 13 -8 20 9 11 24 -6 10 -10 9 -14 -3z"/>
</g>
</svg>
